<svg width="45" height="45" viewBox="0 0 45 45" fill="none" xmlns="http://www.w3.org/2000/svg">
<path d="M21.907 37.4945H12.7782C10.574 37.4945 8.78433 35.6985 8.78433 33.5006V11.4994C8.78433 9.29514 10.5803 7.50552 12.7782 7.50552H22.0555C22.8888 7.50552 23.5583 6.83599 23.5583 6.00276C23.5583 5.16953 22.8888 4.5 22.0555 4.5H12.7782C8.91401 4.5 5.77881 7.64337 5.77881 11.4994V33.5006C5.77881 37.3648 8.92218 40.5 12.7782 40.5H21.907C22.7402 40.5 23.4098 39.8305 23.4098 38.9972C23.4098 38.1616 22.7304 37.4945 21.907 37.4945Z" fill="black" stroke="black"/>
<path d="M38.7771 21.4374L32.4074 15.0677C31.8184 14.4788 30.8705 14.4788 30.2815 15.0677C29.6926 15.6566 29.6926 16.6046 30.2815 17.1935L34.0927 21.0047H14.9549C14.1217 21.0047 13.4521 21.6742 13.4521 22.5074C13.4521 23.3407 14.1217 24.0102 14.9549 24.0102H34.0927L30.2815 27.8213C29.6926 28.4103 29.6926 29.3582 30.2815 29.9471C30.5679 30.2335 30.9549 30.3907 31.3407 30.3907C31.7165 30.3907 32.1085 30.2477 32.4029 29.9442L38.773 23.5741C39.3645 22.9826 39.3748 22.0259 38.7789 21.4393C38.7783 21.4387 38.7777 21.4381 38.7771 21.4374Z" fill="black" stroke="black"/>
</svg>
