<svg width="209" height="43" viewBox="0 0 209 43" fill="none" xmlns="http://www.w3.org/2000/svg">
<path d="M24.5234 5.67188L11.3281 36H4.17969L17.3984 7.35938H0.429688V1.875H24.5234V5.67188ZM69.5469 19.7109C69.5469 22.8984 69.0312 25.6719 68 28.0312C66.9688 30.375 65.5391 32.2578 63.7109 33.6797L69.3828 38.1328L64.9062 42.0938L57.6406 36.2578C56.8125 36.3984 55.9531 36.4688 55.0625 36.4688C52.2344 36.4688 49.7109 35.7891 47.4922 34.4297C45.2734 33.0703 43.5547 31.1328 42.3359 28.6172C41.1172 26.0859 40.5 23.1797 40.4844 19.8984V18.2109C40.4844 14.8516 41.0859 11.8984 42.2891 9.35156C43.5078 6.78906 45.2188 4.82812 47.4219 3.46875C49.6406 2.09375 52.1719 1.40625 55.0156 1.40625C57.8594 1.40625 60.3828 2.09375 62.5859 3.46875C64.8047 4.82812 66.5156 6.78906 67.7188 9.35156C68.9375 11.8984 69.5469 14.8438 69.5469 18.1875V19.7109ZM62.4219 18.1641C62.4219 14.5859 61.7812 11.8672 60.5 10.0078C59.2188 8.14844 57.3906 7.21875 55.0156 7.21875C52.6562 7.21875 50.8359 8.14062 49.5547 9.98438C48.2734 11.8125 47.625 14.5 47.6094 18.0469V19.7109C47.6094 23.1953 48.25 25.8984 49.5312 27.8203C50.8125 29.7422 52.6562 30.7031 55.0625 30.7031C57.4219 30.7031 59.2344 29.7812 60.5 27.9375C61.7656 26.0781 62.4062 23.375 62.4219 19.8281V18.1641ZM89.4453 33.4219C87.7734 35.4531 85.4609 36.4688 82.5078 36.4688C79.7891 36.4688 77.7109 35.6875 76.2734 34.125C74.8516 32.5625 74.125 30.2734 74.0938 27.2578V10.6406H80.8672V27.0234C80.8672 29.6641 82.0703 30.9844 84.4766 30.9844C86.7734 30.9844 88.3516 30.1875 89.2109 28.5938V10.6406H96.0078V36H89.6328L89.4453 33.4219ZM108.266 36H101.469V10.6406H108.266V36ZM101.07 4.07812C101.07 3.0625 101.406 2.22656 102.078 1.57031C102.766 0.914062 103.695 0.585938 104.867 0.585938C106.023 0.585938 106.945 0.914062 107.633 1.57031C108.32 2.22656 108.664 3.0625 108.664 4.07812C108.664 5.10938 108.312 5.95312 107.609 6.60938C106.922 7.26562 106.008 7.59375 104.867 7.59375C103.727 7.59375 102.805 7.26562 102.102 6.60938C101.414 5.95312 101.07 5.10938 101.07 4.07812ZM121.648 30.5391H134.047V36H113V31.875L124.93 16.125H113.352V10.6406H133.672V14.6484L121.648 30.5391ZM146.07 30.5391H158.469V36H137.422V31.875L149.352 16.125H137.773V10.6406H158.094V14.6484L146.07 30.5391ZM174.008 36.4688C170.289 36.4688 167.258 35.3281 164.914 33.0469C162.586 30.7656 161.422 27.7266 161.422 23.9297V23.2734C161.422 20.7266 161.914 18.4531 162.898 16.4531C163.883 14.4375 165.273 12.8906 167.07 11.8125C168.883 10.7188 170.945 10.1719 173.258 10.1719C176.727 10.1719 179.453 11.2656 181.438 13.4531C183.438 15.6406 184.438 18.7422 184.438 22.7578V25.5234H168.289C168.508 27.1797 169.164 28.5078 170.258 29.5078C171.367 30.5078 172.766 31.0078 174.453 31.0078C177.062 31.0078 179.102 30.0625 180.57 28.1719L183.898 31.8984C182.883 33.3359 181.508 34.4609 179.773 35.2734C178.039 36.0703 176.117 36.4688 174.008 36.4688ZM173.234 15.6562C171.891 15.6562 170.797 16.1094 169.953 17.0156C169.125 17.9219 168.594 19.2188 168.359 20.9062H177.781V20.3672C177.75 18.8672 177.344 17.7109 176.562 16.8984C175.781 16.0703 174.672 15.6562 173.234 15.6562ZM202.039 28.9922C202.039 28.1641 201.625 27.5156 200.797 27.0469C199.984 26.5625 198.672 26.1328 196.859 25.7578C190.828 24.4922 187.812 21.9297 187.812 18.0703C187.812 15.8203 188.742 13.9453 190.602 12.4453C192.477 10.9297 194.922 10.1719 197.938 10.1719C201.156 10.1719 203.727 10.9297 205.648 12.4453C207.586 13.9609 208.555 15.9297 208.555 18.3516H201.781C201.781 17.3828 201.469 16.5859 200.844 15.9609C200.219 15.3203 199.242 15 197.914 15C196.773 15 195.891 15.2578 195.266 15.7734C194.641 16.2891 194.328 16.9453 194.328 17.7422C194.328 18.4922 194.68 19.1016 195.383 19.5703C196.102 20.0234 197.305 20.4219 198.992 20.7656C200.68 21.0938 202.102 21.4688 203.258 21.8906C206.836 23.2031 208.625 25.4766 208.625 28.7109C208.625 31.0234 207.633 32.8984 205.648 34.3359C203.664 35.7578 201.102 36.4688 197.961 36.4688C195.836 36.4688 193.945 36.0938 192.289 35.3438C190.648 34.5781 189.359 33.5391 188.422 32.2266C187.484 30.8984 187.016 29.4688 187.016 27.9375H193.438C193.5 29.1406 193.945 30.0625 194.773 30.7031C195.602 31.3438 196.711 31.6641 198.102 31.6641C199.398 31.6641 200.375 31.4219 201.031 30.9375C201.703 30.4375 202.039 29.7891 202.039 28.9922Z" fill="black"/>
</svg>
